<svg xmlns="http://www.w3.org/2000/svg" viewBox="0 0 512 512">
  <!-- Fondo verde con radio para maskable safe zone -->
  <rect width="512" height="512" rx="96" fill="#1a7f37"/>
  <!-- Balón de fútbol estilizado -->
  <circle cx="256" cy="220" r="110" fill="#fff"/>
  <!-- Pentágono central negro -->
  <polygon points="256,148 300,180 284,232 228,232 212,180" fill="#111"/>
  <!-- Pentágonos perimetales -->
  <polygon points="256,148 300,180 328,152 312,108 268,108" fill="#111" opacity=".18"/>
  <polygon points="300,180 284,232 330,254 358,226 340,178" fill="#111" opacity=".18"/>
  <polygon points="284,232 228,232 214,276 250,298 286,276" fill="#111" opacity=".18"/>
  <polygon points="228,232 212,180 172,178 156,228 202,256" fill="#111" opacity=".18"/>
  <polygon points="212,180 256,148 240,106 196,108 180,152" fill="#111" opacity=".18"/>
  <!-- Texto FILFA -->
  <text x="256" y="400" text-anchor="middle"
        font-family="'Arial Black', Arial, sans-serif"
        font-size="88" font-weight="900" fill="#fff" letter-spacing="4">
    FILFA
  </text>
</svg>
